<svg width="150" height="150" viewBox="128 144 264 248" xmlns="http://www.w3.org/2000/svg" style="display:block" overflow="visible">
  <defs>
    <linearGradient id="blueIndigoGradient" x1="0" y1="0" x2="1" y2="1">
      <stop offset="0%" stop-color="#3B9DF4" />
      <stop offset="100%" stop-color="#6A5ACD" />
    </linearGradient>
  </defs>

  <!-- Chat bubble with gradient fill -->
  <path d="M160 144c-17.7 0-32 14.3-32 32v128c0 17.7 14.3 32 32 32h40v40c0 4.4 5.3 6.6 8.4 3.5l44.9-43.8H352c17.7 0 32-14.3 32-32V176c0-17.7-14.3-32-32-32H160z"
        fill="url(#blueIndigoGradient)"/>

  <!-- Camera icon centered inside bubble -->
  <g transform="translate(190, 200)">
    <rect x="0" y="0" width="132" height="90" rx="16" fill="#ffffff"/>
    <circle cx="66" cy="45" r="20" fill="#2a7eff"/>
    <rect x="16" y="-20" width="24" height="16" rx="4" fill="#ffffff"/>
  </g>
</svg>
